<svg width="145" height="43" viewBox="0 0 145 43" fill="none" xmlns="http://www.w3.org/2000/svg">
<path d="M3.90543 38.1098V42.0333C3.90543 42.3807 3.62424 42.665 3.27375 42.665H0.43058V37.0452C0.913846 37.3073 1.52345 37.4778 2.2692 37.4778H3.27375C3.62424 37.4781 3.90543 37.759 3.90543 38.1098Z" fill="#C1C1C1"/>
<path d="M2.52126 18.7206V25.4087C2.85765 25.8309 3.09836 26.3268 3.20599 26.7711C3.27468 27.0544 3.52612 27.2528 3.81743 27.2528H5.36413C5.71309 27.2528 5.99581 26.9701 5.99581 26.6211V16.6489C5.99581 16.2999 5.71309 16.0172 5.36413 16.0172H3.87784C3.55127 16.0172 3.27315 16.2662 3.24892 16.5919C3.17103 17.635 2.88065 18.298 2.52126 18.7206Z" fill="#C1C1C1"/>
<path d="M126.803 1.28662V8.52733H129.646C129.995 8.52733 130.278 8.24461 130.278 7.89565V1.91861C130.278 1.56965 129.995 1.28693 129.646 1.28693H126.803V1.28662Z" fill="#C1C1C1"/>
<path d="M76.7804 12.981C76.2119 12.981 75.6093 13.0837 75.0077 13.2441C76.5253 13.773 77.3048 15.0683 77.3048 16.8275V27.9622H80.7796V16.8275C80.7793 14.4991 79.4163 12.981 76.7804 12.981Z" fill="#C1C1C1"/>
<path d="M142.419 18.954V35.7564C142.419 36.9664 143.351 37.8824 144.302 38.1225C144.583 38.1951 144.782 38.4447 144.782 38.7354V42.0333C144.782 42.3808 144.501 42.665 144.15 42.665H141.307V38.1856C140.217 38.1856 138.944 37.1746 138.944 35.7564V18.954C138.944 17.9115 139.813 17.0933 140.805 16.8818C141.099 16.8186 141.307 16.5629 141.307 16.2657V13.7924H144.15C144.501 13.7924 144.782 14.0735 144.782 14.424V16.2657C144.782 16.5625 144.573 16.8186 144.28 16.8818C143.288 17.0933 142.419 17.9115 142.419 18.954Z" fill="#C1C1C1"/>
<path d="M44.9079 23.4215C44.8297 23.5297 44.7886 23.6588 44.7886 23.7922V35.7564C44.7886 36.4672 45.1075 37.0737 45.5626 37.5033C45.8852 37.8078 46.2743 38.0237 46.6683 38.123C46.951 38.1948 47.1516 38.4435 47.1516 38.7351V42.033C47.1516 42.382 46.8689 42.6647 46.5199 42.6647H43.6767V38.1853C42.5869 38.1853 41.3138 37.1743 41.3138 35.7561V26.1196C41.3138 22.5 46.9575 20.6378 48.4941 20.5583C48.4876 20.5614 48.4846 20.5679 48.4815 20.5743C47.5214 20.7469 45.6187 22.4381 44.9079 23.4215Z" fill="#C1C1C1"/>
<path d="M69.3272 23.5973V35.7563C69.3272 37.3578 70.5277 37.9107 71.2195 38.0971C71.4976 38.1698 71.6902 38.4194 71.6902 38.7068V42.0332C71.6902 42.3821 71.4074 42.6649 71.0585 42.6649H68.2123V38.7353C68.2123 38.4436 68.0117 38.1947 67.729 38.1232C66.7787 37.8825 65.8493 36.9684 65.8493 35.7566V26.1185C65.8493 22.5014 71.4912 20.6376 73.0296 20.5588C73.0231 20.5619 73.0201 20.5683 73.017 20.5748C71.9996 20.7606 69.9181 22.6593 69.3272 23.5973Z" fill="#C1C1C1"/>
<path d="M122.205 20.5587C122.198 20.5618 122.195 20.5682 122.192 20.5747C122.186 20.5747 122.183 20.5777 122.176 20.5811C122.173 20.578 122.17 20.5811 122.167 20.5811C121.131 20.8117 119.1 22.6724 118.515 23.5978V35.7568C118.515 36.5939 118.809 37.1437 119.188 37.5037C119.567 37.8637 120.031 38.0345 120.379 38.1133C120.67 38.1829 120.878 38.4322 120.878 38.7324V42.0334C120.878 42.3808 120.597 42.6651 120.246 42.6651H117.388V38.7355C117.388 38.4448 117.186 38.1952 116.904 38.1225C115.953 37.8824 115.025 36.9695 115.025 35.7564V26.1184C115.025 22.5016 120.667 20.6378 122.205 20.5587Z" fill="#C1C1C1"/>
<path d="M52.2406 12.981C51.6721 12.981 51.0695 13.0837 50.4679 13.2441C51.9854 13.773 52.7649 15.0683 52.7649 16.8275V27.9622H55.6081C55.9571 27.9622 56.2398 27.6795 56.2398 27.3305V16.8278C56.2398 14.4991 54.8761 12.981 52.2406 12.981Z" fill="#C1C1C1"/>
<path d="M125.97 12.981C125.401 12.981 124.798 13.0837 124.197 13.2441C125.714 13.773 126.494 15.0683 126.494 16.8275V27.9622H129.969V16.8275C129.969 14.4991 128.605 12.981 125.97 12.981Z" fill="#C1C1C1"/>
<path d="M25.8796 14.7861C27.1522 16.2028 27.7881 17.2153 27.7881 20.5555V28.8535H30.6313C30.9803 28.8535 31.263 28.5708 31.263 28.2219V20.5559C31.263 17.2156 30.6267 16.2031 29.3545 14.7864C28.0819 13.3691 23.6286 12.9644 21.629 12.9644C20.8759 12.9644 20.1997 12.9828 19.5873 13.0171C21.7933 13.1643 24.8594 13.6491 25.8796 14.7861Z" fill="#C1C1C1"/>
<path d="M30.6666 32.6179H27.7881C27.7881 32.6179 28.3337 38.4895 25.6975 40.6151C23.9607 42.0158 21.7936 42.4476 20.2028 42.5807C20.9304 42.6395 21.5097 42.6399 21.8105 42.6399C22.9009 42.6399 26.5367 42.741 29.1723 40.6154C31.2906 38.9071 31.3541 34.7788 31.2976 33.2242C31.286 32.885 31.006 32.6179 30.6666 32.6179Z" fill="#C1C1C1"/>
<path d="M104.156 35.7559V20.5723C104.156 18.2443 104.066 15.8148 101.884 14.0939C99.703 12.3734 96.158 12.4743 94.7949 12.4743C94.4589 12.4743 93.929 12.4743 93.2912 12.5138C94.9056 12.6119 96.958 12.9489 98.4096 14.0936C100.591 15.8145 100.682 18.244 100.682 20.572V35.7556C100.682 37.1726 101.954 38.1848 103.045 38.1848V42.6643H106.52V38.1848C105.429 38.1855 104.156 37.1732 104.156 35.7559Z" fill="#C1C1C1"/>
<path d="M139.239 0.335083C138.634 0.335083 138.05 0.401623 137.502 0.524586C139.834 1.04526 141.525 2.58583 141.525 4.40604C141.525 6.22596 139.834 7.76652 137.502 8.2875C138.05 8.41016 138.634 8.4767 139.239 8.4767C142.421 8.4767 145 6.65403 145 4.40604C145 2.15775 142.421 0.335083 139.239 0.335083Z" fill="#C1C1C1"/>
</svg>
